<svg xmlns="http://www.w3.org/2000/svg" width="605.01" height="216.45" viewBox="0 0 605.01 216.45" role="img" aria-label="Kristina Zakharchenko"><g transform="translate(176.58,90.00)"><path d="M8.35 0.00V-90.00H33.12V-19.80L26.52 -24.96L77.47 -90.00H103.78L30.86 0.00ZM51.41 -42.94 69.55 -58.03 105.02 0.00H76.75Z" fill="#16110F"/><path d="M109.82 0.00V-18.02L168.74 -75.89L186.79 -70.54H110.23V-90.07H196.34V-72.10L137.45 -14.14L121.99 -19.54H196.70V0.00Z" fill="#16110F"/><path d="M229.70 1.25Q225.86 1.25 222.71 -0.58Q219.55 -2.40 217.73 -5.56Q215.90 -8.71 215.90 -12.55Q215.90 -16.46 217.73 -19.58Q219.55 -22.70 222.71 -24.53Q225.86 -26.35 229.70 -26.35Q233.62 -26.35 236.74 -24.53Q239.86 -22.70 241.68 -19.58Q243.50 -16.46 243.50 -12.55Q243.50 -8.71 241.68 -5.56Q239.86 -2.40 236.74 -0.58Q233.62 1.25 229.70 1.25Z" fill="#C2246E"/></g><g transform="translate(-2.64,153.00)"><path d="M2.64 0.00V-27.00H9.40V-5.45L7.55 -6.84L23.53 -27.00H30.74L8.76 0.00ZM15.54 -13.05 20.46 -17.27 31.12 0.00H23.40Z M38.30 -15.11H48.42Q50.34 -15.11 51.45 -15.99Q52.55 -16.88 52.55 -18.46Q52.55 -20.06 51.45 -20.93Q50.34 -21.81 48.42 -21.81H37.34L40.39 -25.15V0.00H33.60V-27.00H49.31Q52.33 -27.00 54.60 -25.93Q56.87 -24.85 58.14 -22.94Q59.41 -21.04 59.41 -18.46Q59.41 -15.95 58.14 -14.04Q56.87 -12.12 54.60 -11.06Q52.33 -9.99 49.31 -9.99H38.30ZM42.66 -12.64H50.34L60.28 0.00H52.37Z M63.84 -27.00H70.63V0.00H63.84Z M74.58 -8.83H81.48Q81.66 -7.59 82.59 -6.66Q83.52 -5.74 85.09 -5.23Q86.65 -4.73 88.74 -4.73Q91.72 -4.73 93.43 -5.55Q95.14 -6.36 95.14 -7.87Q95.14 -9.03 94.16 -9.67Q93.18 -10.31 90.46 -10.59L85.24 -11.14Q79.81 -11.67 77.38 -13.64Q74.94 -15.61 74.94 -19.03Q74.94 -21.76 76.54 -23.67Q78.14 -25.57 81.05 -26.57Q83.96 -27.57 87.85 -27.57Q91.68 -27.57 94.65 -26.46Q97.61 -25.36 99.36 -23.38Q101.12 -21.39 101.28 -18.74H94.38Q94.23 -19.82 93.40 -20.61Q92.57 -21.39 91.13 -21.83Q89.70 -22.27 87.71 -22.27Q85.00 -22.27 83.40 -21.50Q81.80 -20.73 81.80 -19.29Q81.80 -18.23 82.75 -17.60Q83.69 -16.98 86.15 -16.70L91.67 -16.10Q95.45 -15.71 97.71 -14.83Q99.97 -13.95 100.97 -12.44Q101.98 -10.93 101.98 -8.63Q101.98 -5.86 100.31 -3.79Q98.65 -1.72 95.64 -0.57Q92.63 0.57 88.62 0.57Q84.51 0.57 81.38 -0.61Q78.26 -1.79 76.48 -3.91Q74.69 -6.03 74.58 -8.83Z M114.42 -23.99H121.21V0.00H114.42ZM103.91 -27.00H131.72V-20.98H103.91Z M135.01 -27.00H141.80V0.00H135.01Z M172.09 -4.63 169.88 -4.24V-27.00H176.47V0.00H167.91L151.47 -22.75L153.65 -23.14V0.00H147.07V-27.00H155.87Z M186.60 -5.45V-10.93H205.25V-5.45ZM200.49 -27.00 212.95 0.00H205.70L195.03 -24.16H197.11L186.44 0.00H179.19L191.65 -27.00Z M223.61 0.00V-4.96L241.85 -23.23L246.68 -21.63H223.74V-27.02H249.29V-22.07L231.05 -3.77L226.91 -5.39H249.40V0.00Z M258.42 -5.45V-10.93H277.07V-5.45ZM272.31 -27.00 284.77 0.00H277.52L266.85 -24.16H268.93L258.26 0.00H251.01L263.47 -27.00Z M287.50 0.00V-27.00H294.26V-5.45L292.42 -6.84L308.40 -27.00H315.61L293.63 0.00ZM300.40 -13.05 305.32 -17.27 315.99 0.00H308.27Z M318.46 -27.00H325.26V0.00H318.46ZM339.90 -27.00H346.70V0.00H339.90ZM322.23 -16.68H342.79V-10.69H322.23Z M356.84 -5.45V-10.93H375.50V-5.45ZM370.73 -27.00 383.19 0.00H375.94L365.27 -24.16H367.35L356.68 0.00H349.43L361.89 -27.00Z M390.63 -15.11H400.75Q402.68 -15.11 403.78 -15.99Q404.88 -16.88 404.88 -18.46Q404.88 -20.06 403.78 -20.93Q402.68 -21.81 400.75 -21.81H389.67L392.72 -25.15V0.00H385.93V-27.00H401.64Q404.66 -27.00 406.93 -25.93Q409.20 -24.85 410.48 -22.94Q411.75 -21.04 411.75 -18.46Q411.75 -15.95 410.48 -14.04Q409.20 -12.12 406.93 -11.06Q404.66 -9.99 401.64 -9.99H390.63ZM394.99 -12.64H402.67L412.61 0.00H404.70Z M445.79 -11.15Q445.40 -7.66 443.37 -5.01Q441.35 -2.37 438.05 -0.90Q434.75 0.57 430.51 0.57Q425.84 0.57 422.34 -1.20Q418.84 -2.96 416.89 -6.13Q414.94 -9.29 414.94 -13.50Q414.94 -17.71 416.89 -20.87Q418.84 -24.04 422.34 -25.80Q425.84 -27.57 430.51 -27.57Q434.75 -27.57 438.05 -26.10Q441.35 -24.63 443.37 -22.00Q445.40 -19.36 445.79 -15.85H438.96Q438.60 -17.67 437.49 -18.97Q436.38 -20.27 434.61 -20.97Q432.83 -21.67 430.49 -21.67Q427.80 -21.67 425.85 -20.68Q423.91 -19.70 422.86 -17.86Q421.81 -16.02 421.81 -13.50Q421.81 -10.98 422.86 -9.15Q423.91 -7.32 425.85 -6.33Q427.80 -5.33 430.49 -5.33Q432.83 -5.33 434.61 -6.01Q436.38 -6.68 437.49 -7.99Q438.60 -9.29 438.96 -11.15Z M449.61 -27.00H456.40V0.00H449.61ZM471.05 -27.00H477.85V0.00H471.05ZM453.38 -16.68H473.94V-10.69H453.38Z M505.83 -16.03V-10.97H486.30V-16.03ZM490.89 -13.50 489.09 -2.35 486.26 -5.56H507.00V0.00H482.29L484.37 -13.50L482.29 -27.00H506.82V-21.44H486.26L489.09 -24.65Z M536.48 -4.63 534.28 -4.24V-27.00H540.86V0.00H532.30L515.86 -22.75L518.04 -23.14V0.00H511.46V-27.00H520.26Z M546.13 0.00V-27.00H552.89V-5.45L551.04 -6.84L567.03 -27.00H574.23L552.25 0.00ZM559.03 -13.05 563.95 -17.27 574.61 0.00H566.89Z M591.74 0.57Q586.99 0.57 583.41 -1.20Q579.83 -2.96 577.83 -6.13Q575.84 -9.29 575.84 -13.50Q575.84 -17.71 577.83 -20.87Q579.83 -24.04 583.41 -25.80Q586.99 -27.57 591.74 -27.57Q596.50 -27.57 600.08 -25.80Q603.66 -24.04 605.65 -20.87Q607.64 -17.71 607.64 -13.50Q607.64 -9.29 605.65 -6.13Q603.66 -2.96 600.08 -1.20Q596.50 0.57 591.74 0.57ZM591.74 -5.49Q594.53 -5.49 596.55 -6.46Q598.57 -7.43 599.68 -9.23Q600.78 -11.03 600.78 -13.50Q600.78 -15.97 599.68 -17.77Q598.57 -19.57 596.55 -20.54Q594.53 -21.51 591.74 -21.51Q588.97 -21.51 586.94 -20.54Q584.91 -19.57 583.81 -17.77Q582.71 -15.97 582.71 -13.50Q582.71 -11.03 583.81 -9.23Q584.91 -7.43 586.94 -6.46Q588.97 -5.49 591.74 -5.49Z" fill="#16110F"/></g><g transform="translate(121.20,188.10)"><path d="M4.77 0.00H1.86V-1.56H4.67Q6.01 -1.56 6.91 -2.06Q7.80 -2.57 8.24 -3.54Q8.69 -4.51 8.69 -5.91Q8.69 -7.30 8.25 -8.26Q7.81 -9.22 6.94 -9.73Q6.07 -10.23 4.77 -10.23H1.80V-11.79H4.89Q6.62 -11.79 7.86 -11.08Q9.11 -10.38 9.77 -9.06Q10.43 -7.74 10.43 -5.91Q10.43 -4.07 9.76 -2.74Q9.10 -1.42 7.83 -0.71Q6.56 0.00 4.77 0.00ZM2.73 -11.79V0.00H0.95V-11.79Z M16.32 -11.79V0.00H14.54V-11.79Z M25.79 0.16Q24.20 0.16 22.99 -0.58Q21.79 -1.31 21.11 -2.67Q20.44 -4.02 20.44 -5.88Q20.44 -7.76 21.12 -9.12Q21.81 -10.48 23.00 -11.21Q24.19 -11.94 25.72 -11.94Q26.67 -11.94 27.50 -11.66Q28.32 -11.38 28.97 -10.86Q29.61 -10.34 30.04 -9.63Q30.46 -8.92 30.61 -8.06H28.79Q28.62 -8.59 28.35 -9.00Q28.07 -9.42 27.68 -9.72Q27.29 -10.01 26.80 -10.17Q26.32 -10.32 25.73 -10.32Q24.73 -10.32 23.93 -9.81Q23.13 -9.30 22.66 -8.31Q22.20 -7.32 22.20 -5.89Q22.20 -4.46 22.67 -3.47Q23.13 -2.49 23.95 -1.97Q24.76 -1.46 25.80 -1.46Q26.76 -1.46 27.47 -1.85Q28.18 -2.24 28.58 -2.96Q28.97 -3.67 28.97 -4.64L29.44 -4.56H26.06V-6.02H30.70V-4.69Q30.70 -3.20 30.07 -2.11Q29.44 -1.03 28.33 -0.43Q27.22 0.16 25.79 0.16Z M36.64 -11.79V0.00H34.86V-11.79Z M40.55 -10.26V-11.79H49.67V-10.26H46.00V0.00H44.23V-10.26Z M54.58 0.00H52.69L56.94 -11.79H58.99L63.22 0.00H61.34L58.00 -9.64H57.91ZM54.90 -4.61H61.02V-3.12H54.90Z M66.82 0.00V-11.79H68.60V-1.53H73.94V0.00Z M87.35 0.16Q86.17 0.16 85.31 -0.26Q84.45 -0.69 83.99 -1.44Q83.53 -2.18 83.53 -3.13Q83.53 -3.85 83.84 -4.40Q84.15 -4.95 84.69 -5.43Q85.23 -5.90 85.91 -6.40L87.81 -7.75Q88.28 -8.08 88.55 -8.43Q88.82 -8.77 88.82 -9.29Q88.82 -9.71 88.47 -10.09Q88.11 -10.47 87.51 -10.47Q87.11 -10.47 86.79 -10.27Q86.48 -10.07 86.30 -9.76Q86.12 -9.44 86.12 -9.10Q86.12 -8.70 86.35 -8.29Q86.57 -7.87 86.92 -7.44Q87.27 -7.01 87.66 -6.53L93.13 0.00H91.18L86.66 -5.32Q86.09 -5.99 85.60 -6.59Q85.11 -7.19 84.81 -7.80Q84.51 -8.41 84.51 -9.12Q84.51 -9.94 84.88 -10.57Q85.25 -11.20 85.92 -11.55Q86.58 -11.91 87.48 -11.91Q88.39 -11.91 89.04 -11.56Q89.70 -11.20 90.05 -10.62Q90.41 -10.03 90.41 -9.34Q90.41 -8.50 89.99 -7.87Q89.57 -7.23 88.84 -6.69L86.47 -4.94Q85.78 -4.43 85.51 -3.94Q85.25 -3.45 85.25 -3.18Q85.25 -2.67 85.51 -2.24Q85.78 -1.81 86.25 -1.54Q86.73 -1.28 87.36 -1.28Q88.02 -1.28 88.64 -1.57Q89.26 -1.86 89.77 -2.39Q90.27 -2.93 90.58 -3.68Q90.88 -4.43 90.88 -5.35H92.43Q92.43 -4.21 92.18 -3.43Q91.92 -2.64 91.55 -2.15Q91.19 -1.66 90.87 -1.39Q90.76 -1.29 90.67 -1.20Q90.57 -1.11 90.48 -1.02Q89.87 -0.41 89.02 -0.12Q88.17 0.16 87.35 0.16Z M102.71 0.00V-11.79H106.92Q108.29 -11.79 109.19 -11.28Q110.09 -10.78 110.54 -9.92Q111.00 -9.05 111.00 -7.96Q111.00 -6.88 110.54 -6.01Q110.09 -5.15 109.19 -4.64Q108.28 -4.14 106.91 -4.14H104.02V-5.65H106.74Q107.61 -5.65 108.16 -5.95Q108.70 -6.25 108.95 -6.78Q109.20 -7.30 109.20 -7.96Q109.20 -8.64 108.95 -9.15Q108.70 -9.67 108.15 -9.97Q107.61 -10.26 106.73 -10.26H104.49V0.00Z M114.97 0.00V-11.79H122.36V-10.26H116.75V-6.71H121.97V-5.19H116.75V-1.53H122.42V0.00Z M126.64 0.00V-11.79H130.85Q132.22 -11.79 133.12 -11.31Q134.02 -10.84 134.47 -10.01Q134.93 -9.17 134.93 -8.09Q134.93 -7.01 134.48 -6.19Q134.02 -5.37 133.12 -4.91Q132.21 -4.46 130.84 -4.46H127.66V-5.98H130.67Q131.54 -5.98 132.09 -6.23Q132.63 -6.48 132.88 -6.95Q133.13 -7.42 133.13 -8.09Q133.13 -8.76 132.88 -9.25Q132.62 -9.73 132.08 -10.00Q131.54 -10.26 130.66 -10.26H128.42V0.00ZM133.35 0.00 130.49 -5.32H132.46L135.37 0.00Z M139.00 0.00V-11.79H146.32V-10.26H140.78V-6.44H145.79V-4.92H140.78V0.00Z M155.35 0.16Q153.82 0.16 152.62 -0.57Q151.42 -1.30 150.72 -2.65Q150.03 -4.01 150.03 -5.89Q150.03 -7.77 150.72 -9.13Q151.42 -10.49 152.62 -11.22Q153.82 -11.94 155.35 -11.94Q156.88 -11.94 158.07 -11.22Q159.27 -10.49 159.96 -9.13Q160.65 -7.77 160.65 -5.89Q160.65 -4.01 159.96 -2.65Q159.27 -1.30 158.07 -0.57Q156.88 0.16 155.35 0.16ZM155.35 -1.46Q156.36 -1.46 157.16 -1.97Q157.96 -2.48 158.43 -3.47Q158.89 -4.45 158.89 -5.89Q158.89 -7.32 158.43 -8.32Q157.96 -9.31 157.16 -9.82Q156.36 -10.32 155.35 -10.32Q154.33 -10.32 153.53 -9.82Q152.73 -9.31 152.26 -8.32Q151.79 -7.32 151.79 -5.89Q151.79 -4.45 152.26 -3.47Q152.73 -2.48 153.53 -1.97Q154.33 -1.46 155.35 -1.46Z M164.76 0.00V-11.79H168.97Q170.34 -11.79 171.24 -11.31Q172.14 -10.84 172.59 -10.01Q173.05 -9.17 173.05 -8.09Q173.05 -7.01 172.59 -6.19Q172.14 -5.37 171.24 -4.91Q170.33 -4.46 168.96 -4.46H165.78V-5.98H168.79Q169.66 -5.98 170.21 -6.23Q170.75 -6.48 171.00 -6.95Q171.25 -7.42 171.25 -8.09Q171.25 -8.76 171.00 -9.25Q170.74 -9.73 170.20 -10.00Q169.66 -10.26 168.78 -10.26H166.54V0.00ZM171.47 0.00 168.61 -5.32H170.58L173.49 0.00Z M177.12 -11.79H179.29L183.04 -2.63H183.18L186.93 -11.79H189.13V0.00H187.39V-8.53H187.28L183.79 -0.02H182.39L178.93 -8.53H178.83V0.00H177.12Z M194.62 0.00H192.73L196.98 -11.79H199.03L203.26 0.00H201.38L198.04 -9.64H197.95ZM194.94 -4.61H201.06V-3.12H194.94Z M216.39 -11.79V0.00H214.73L208.76 -8.64H208.64V0.00H206.86V-11.79H208.51L214.50 -3.14H214.61V-11.79Z M225.81 0.16Q224.28 0.16 223.08 -0.57Q221.88 -1.30 221.19 -2.65Q220.51 -4.01 220.51 -5.89Q220.51 -7.77 221.20 -9.13Q221.89 -10.49 223.09 -11.22Q224.29 -11.94 225.81 -11.94Q226.74 -11.94 227.56 -11.67Q228.37 -11.40 229.02 -10.89Q229.67 -10.38 230.09 -9.64Q230.52 -8.89 230.66 -7.95H228.87Q228.77 -8.53 228.49 -8.97Q228.21 -9.41 227.80 -9.71Q227.39 -10.01 226.89 -10.17Q226.39 -10.32 225.82 -10.32Q224.81 -10.32 224.00 -9.81Q223.20 -9.30 222.73 -8.31Q222.27 -7.32 222.27 -5.89Q222.27 -4.45 222.73 -3.46Q223.20 -2.47 224.00 -1.97Q224.81 -1.46 225.82 -1.46Q226.38 -1.46 226.88 -1.61Q227.38 -1.77 227.79 -2.06Q228.20 -2.36 228.48 -2.80Q228.76 -3.23 228.87 -3.80H230.66Q230.53 -2.92 230.11 -2.20Q229.70 -1.47 229.06 -0.95Q228.42 -0.42 227.60 -0.13Q226.77 0.16 225.81 0.16Z M234.71 0.00V-11.79H242.10V-10.26H236.49V-6.71H241.71V-5.19H236.49V-1.53H242.16V0.00Z M252.58 -11.79H254.74L258.49 -2.63H258.63L262.38 -11.79H264.59V0.00H262.84V-8.53H262.74L259.25 -0.02H257.84L254.39 -8.53H254.28V0.00H252.58Z M270.08 0.00H268.19L272.43 -11.79H274.48L278.72 0.00H276.84L273.50 -9.64H273.41ZM270.40 -4.61H276.52V-3.12H270.40Z M282.32 0.00V-11.79H286.52Q287.89 -11.79 288.79 -11.31Q289.70 -10.84 290.15 -10.01Q290.60 -9.17 290.60 -8.09Q290.60 -7.01 290.15 -6.19Q289.70 -5.37 288.79 -4.91Q287.88 -4.46 286.51 -4.46H283.33V-5.98H286.34Q287.22 -5.98 287.76 -6.23Q288.30 -6.48 288.55 -6.95Q288.81 -7.42 288.81 -8.09Q288.81 -8.76 288.55 -9.25Q288.30 -9.73 287.75 -10.00Q287.21 -10.26 286.33 -10.26H284.09V0.00ZM289.02 0.00 286.17 -5.32H288.14L291.05 0.00Z M294.68 0.00V-11.79H296.46V-6.15H296.60L301.55 -11.79H303.78L299.03 -6.48L303.80 0.00H301.65L297.84 -5.26L296.46 -3.66V0.00Z M307.35 0.00V-11.79H314.75V-10.26H309.13V-6.71H314.36V-5.19H309.13V-1.53H314.81V0.00Z M318.45 -10.26V-11.79H327.57V-10.26H323.90V0.00H322.13V-10.26Z M333.25 -11.79V0.00H331.48V-11.79Z M347.28 -11.79V0.00H345.62L339.64 -8.64H339.52V0.00H337.75V-11.79H339.39L345.39 -3.14H345.50V-11.79Z M356.75 0.16Q355.15 0.16 353.95 -0.58Q352.74 -1.31 352.07 -2.67Q351.39 -4.02 351.39 -5.88Q351.39 -7.76 352.08 -9.12Q352.76 -10.48 353.95 -11.21Q355.14 -11.94 356.67 -11.94Q357.62 -11.94 358.45 -11.66Q359.27 -11.38 359.92 -10.86Q360.57 -10.34 360.99 -9.63Q361.41 -8.92 361.56 -8.06H359.74Q359.58 -8.59 359.30 -9.00Q359.02 -9.42 358.63 -9.72Q358.24 -10.01 357.76 -10.17Q357.27 -10.32 356.68 -10.32Q355.69 -10.32 354.89 -9.81Q354.09 -9.30 353.62 -8.31Q353.15 -7.32 353.15 -5.89Q353.15 -4.46 353.62 -3.47Q354.09 -2.49 354.90 -1.97Q355.71 -1.46 356.75 -1.46Q357.71 -1.46 358.42 -1.85Q359.13 -2.24 359.53 -2.96Q359.92 -3.67 359.92 -4.64L360.39 -4.56H357.02V-6.02H361.66V-4.69Q361.66 -3.20 361.03 -2.11Q360.40 -1.03 359.29 -0.43Q358.18 0.16 356.75 0.16Z" fill="#16110F" opacity="0.6"/></g><g transform="translate(138.38,212.40)"><path d="M0.95 0.00V-11.79H8.34V-10.26H2.73V-6.71H7.95V-5.19H2.73V-1.53H8.40V0.00Z M17.69 -5.72V-4.23H12.46V-5.72Z M26.94 0.16Q25.42 0.16 24.22 -0.57Q23.02 -1.30 22.33 -2.65Q21.64 -4.01 21.64 -5.89Q21.64 -7.77 22.33 -9.13Q23.02 -10.49 24.22 -11.22Q25.42 -11.94 26.94 -11.94Q27.87 -11.94 28.69 -11.67Q29.51 -11.40 30.16 -10.89Q30.80 -10.38 31.23 -9.64Q31.65 -8.89 31.80 -7.95H30.01Q29.90 -8.53 29.62 -8.97Q29.34 -9.41 28.93 -9.71Q28.53 -10.01 28.02 -10.17Q27.52 -10.32 26.96 -10.32Q25.95 -10.32 25.14 -9.81Q24.33 -9.30 23.86 -8.31Q23.40 -7.32 23.40 -5.89Q23.40 -4.45 23.87 -3.46Q24.33 -2.47 25.14 -1.97Q25.95 -1.46 26.96 -1.46Q27.51 -1.46 28.01 -1.61Q28.51 -1.77 28.92 -2.06Q29.33 -2.36 29.61 -2.80Q29.90 -3.23 30.01 -3.80H31.80Q31.66 -2.92 31.25 -2.20Q30.84 -1.47 30.20 -0.95Q29.56 -0.42 28.73 -0.13Q27.91 0.16 26.94 0.16Z M40.78 0.16Q39.26 0.16 38.05 -0.57Q36.85 -1.30 36.16 -2.65Q35.46 -4.01 35.46 -5.89Q35.46 -7.77 36.16 -9.13Q36.85 -10.49 38.05 -11.22Q39.26 -11.94 40.78 -11.94Q42.31 -11.94 43.51 -11.22Q44.70 -10.49 45.39 -9.13Q46.08 -7.77 46.08 -5.89Q46.08 -4.01 45.39 -2.65Q44.70 -1.30 43.51 -0.57Q42.31 0.16 40.78 0.16ZM40.78 -1.46Q41.79 -1.46 42.60 -1.97Q43.40 -2.48 43.86 -3.47Q44.32 -4.45 44.32 -5.89Q44.32 -7.32 43.86 -8.32Q43.40 -9.31 42.60 -9.82Q41.79 -10.32 40.78 -10.32Q39.77 -10.32 38.96 -9.82Q38.16 -9.31 37.69 -8.32Q37.22 -7.32 37.22 -5.89Q37.22 -4.45 37.69 -3.47Q38.16 -2.48 38.96 -1.97Q39.77 -1.46 40.78 -1.46Z M50.20 -11.79H52.36L56.11 -2.63H56.25L60.00 -11.79H62.21V0.00H60.46V-8.53H60.36L56.86 -0.02H55.46L52.01 -8.53H51.90V0.00H50.20Z M66.69 -11.79H68.86L72.61 -2.63H72.75L76.50 -11.79H78.70V0.00H76.96V-8.53H76.85L73.36 -0.02H71.96L68.50 -8.53H68.40V0.00H66.69Z M83.19 0.00V-11.79H90.59V-10.26H84.97V-6.71H90.19V-5.19H84.97V-1.53H90.64V0.00Z M94.86 0.00V-11.79H99.07Q100.44 -11.79 101.34 -11.31Q102.24 -10.84 102.70 -10.01Q103.15 -9.17 103.15 -8.09Q103.15 -7.01 102.70 -6.19Q102.25 -5.37 101.34 -4.91Q100.43 -4.46 99.06 -4.46H95.88V-5.98H98.89Q99.77 -5.98 100.31 -6.23Q100.85 -6.48 101.10 -6.95Q101.35 -7.42 101.35 -8.09Q101.35 -8.76 101.10 -9.25Q100.84 -9.73 100.30 -10.00Q99.76 -10.26 98.88 -10.26H96.64V0.00ZM101.57 0.00 98.72 -5.32H100.69L103.59 0.00Z M112.15 0.16Q110.62 0.16 109.42 -0.57Q108.22 -1.30 107.54 -2.65Q106.85 -4.01 106.85 -5.89Q106.85 -7.77 107.54 -9.13Q108.23 -10.49 109.43 -11.22Q110.63 -11.94 112.15 -11.94Q113.08 -11.94 113.90 -11.67Q114.72 -11.40 115.36 -10.89Q116.01 -10.38 116.44 -9.64Q116.86 -8.89 117.01 -7.95H115.22Q115.11 -8.53 114.83 -8.97Q114.55 -9.41 114.14 -9.71Q113.73 -10.01 113.23 -10.17Q112.73 -10.32 112.17 -10.32Q111.15 -10.32 110.35 -9.81Q109.54 -9.30 109.07 -8.31Q108.61 -7.32 108.61 -5.89Q108.61 -4.45 109.08 -3.46Q109.54 -2.47 110.35 -1.97Q111.15 -1.46 112.16 -1.46Q112.72 -1.46 113.22 -1.61Q113.72 -1.77 114.13 -2.06Q114.54 -2.36 114.82 -2.80Q115.11 -3.23 115.22 -3.80H117.01Q116.87 -2.92 116.46 -2.20Q116.05 -1.47 115.41 -0.95Q114.77 -0.42 113.94 -0.13Q113.12 0.16 112.15 0.16Z M121.05 0.00V-11.79H128.44V-10.26H122.83V-6.71H128.05V-5.19H122.83V-1.53H128.50V0.00Z M140.08 -3.92Q139.60 -3.92 139.26 -4.26Q138.92 -4.59 138.92 -5.07Q138.92 -5.55 139.26 -5.89Q139.60 -6.22 140.08 -6.22Q140.56 -6.22 140.89 -5.89Q141.23 -5.55 141.23 -5.07Q141.23 -4.59 140.89 -4.26Q140.56 -3.92 140.08 -3.92Z M151.92 0.00V-11.79H153.70V-1.53H159.04V0.00Z M162.97 0.00V-11.79H170.36V-10.26H164.75V-6.71H169.97V-5.19H164.75V-1.53H170.42V0.00Z M175.65 0.00H173.75L178.00 -11.79H180.05L184.28 0.00H182.40L179.07 -9.64H178.97ZM175.96 -4.61H182.08V-3.12H175.96Z M191.70 0.00H188.79V-1.56H191.60Q192.95 -1.56 193.84 -2.06Q194.73 -2.57 195.18 -3.54Q195.62 -4.51 195.62 -5.91Q195.62 -7.30 195.18 -8.26Q194.74 -9.22 193.87 -9.73Q193.00 -10.23 191.71 -10.23H188.73V-11.79H191.82Q193.55 -11.79 194.80 -11.08Q196.04 -10.38 196.70 -9.06Q197.36 -7.74 197.36 -5.91Q197.36 -4.07 196.70 -2.74Q196.03 -1.42 194.76 -0.71Q193.50 0.00 191.70 0.00ZM189.66 -11.79V0.00H187.88V-11.79Z M212.66 0.16Q211.06 0.16 209.85 -0.58Q208.65 -1.31 207.97 -2.67Q207.30 -4.02 207.30 -5.88Q207.30 -7.76 207.98 -9.12Q208.67 -10.48 209.86 -11.21Q211.05 -11.94 212.58 -11.94Q213.53 -11.94 214.36 -11.66Q215.18 -11.38 215.83 -10.86Q216.47 -10.34 216.90 -9.63Q217.32 -8.92 217.47 -8.06H215.65Q215.48 -8.59 215.21 -9.00Q214.93 -9.42 214.54 -9.72Q214.15 -10.01 213.66 -10.17Q213.18 -10.32 212.59 -10.32Q211.59 -10.32 210.79 -9.81Q209.99 -9.30 209.53 -8.31Q209.06 -7.32 209.06 -5.89Q209.06 -4.46 209.53 -3.47Q209.99 -2.49 210.81 -1.97Q211.62 -1.46 212.66 -1.46Q213.62 -1.46 214.33 -1.85Q215.04 -2.24 215.44 -2.96Q215.83 -3.67 215.83 -4.64L216.30 -4.56H212.92V-6.02H217.56V-4.69Q217.56 -3.20 216.93 -2.11Q216.30 -1.03 215.19 -0.43Q214.08 0.16 212.66 0.16Z M221.72 0.00V-11.79H229.12V-10.26H223.50V-6.71H228.72V-5.19H223.50V-1.53H229.17V0.00Z M242.92 -11.79V0.00H241.27L235.29 -8.64H235.17V0.00H233.39V-11.79H235.04L241.04 -3.14H241.15V-11.79Z M247.42 0.00V-11.79H254.81V-10.26H249.19V-6.71H254.42V-5.19H249.19V-1.53H254.87V0.00Z M259.09 0.00V-11.79H263.29Q264.66 -11.79 265.57 -11.31Q266.47 -10.84 266.92 -10.01Q267.37 -9.17 267.37 -8.09Q267.37 -7.01 266.92 -6.19Q266.47 -5.37 265.56 -4.91Q264.65 -4.46 263.28 -4.46H260.11V-5.98H263.12Q263.99 -5.98 264.53 -6.23Q265.08 -6.48 265.33 -6.95Q265.58 -7.42 265.58 -8.09Q265.58 -8.76 265.32 -9.25Q265.07 -9.73 264.53 -10.00Q263.98 -10.26 263.10 -10.26H260.87V0.00ZM265.79 0.00 262.94 -5.32H264.91L267.82 0.00Z M272.45 0.00H270.56L274.81 -11.79H276.86L281.09 0.00H279.21L275.87 -9.64H275.78ZM272.77 -4.61H278.89V-3.12H272.77Z M284.11 -10.26V-11.79H293.23V-10.26H289.56V0.00H287.79V-10.26Z M298.92 -11.79V0.00H297.14V-11.79Z M308.35 0.16Q306.82 0.16 305.62 -0.57Q304.42 -1.30 303.72 -2.65Q303.03 -4.01 303.03 -5.89Q303.03 -7.77 303.72 -9.13Q304.42 -10.49 305.62 -11.22Q306.82 -11.94 308.35 -11.94Q309.88 -11.94 311.07 -11.22Q312.27 -10.49 312.96 -9.13Q313.65 -7.77 313.65 -5.89Q313.65 -4.01 312.96 -2.65Q312.27 -1.30 311.07 -0.57Q309.88 0.16 308.35 0.16ZM308.35 -1.46Q309.36 -1.46 310.16 -1.97Q310.96 -2.48 311.43 -3.47Q311.89 -4.45 311.89 -5.89Q311.89 -7.32 311.43 -8.32Q310.96 -9.31 310.16 -9.82Q309.36 -10.32 308.35 -10.32Q307.33 -10.32 306.53 -9.82Q305.73 -9.31 305.26 -8.32Q304.79 -7.32 304.79 -5.89Q304.79 -4.45 305.26 -3.47Q305.73 -2.48 306.53 -1.97Q307.33 -1.46 308.35 -1.46Z M327.29 -11.79V0.00H325.63L319.66 -8.64H319.54V0.00H317.76V-11.79H319.41L325.41 -3.14H325.51V-11.79Z" fill="#16110F" opacity="0.42"/></g></svg>