<svg xmlns="http://www.w3.org/2000/svg" width="662.70" height="29.23" viewBox="0 0 662.70 29.23" role="img" aria-label="Kristina Zakharchenko"><g transform="translate(0,21.81)"><path d="M1.58 0.00V-21.83H5.53V-11.79H5.81L14.32 -21.83H19.14L10.71 -12.03L19.21 0.00H14.46L7.95 -9.35L5.53 -6.49V0.00Z M20.61 0.00V-16.38H24.34V-13.63H24.52Q24.96 -15.06 26.06 -15.83Q27.16 -16.60 28.56 -16.60Q28.88 -16.60 29.28 -16.57Q29.67 -16.54 29.95 -16.49V-12.96Q29.69 -13.04 29.17 -13.10Q28.64 -13.16 28.15 -13.16Q27.09 -13.16 26.25 -12.71Q25.42 -12.25 24.94 -11.46Q24.46 -10.66 24.46 -9.62V0.00Z M31.39 0.00V-16.38H35.24V0.00ZM33.32 -18.68Q32.40 -18.68 31.75 -19.29Q31.09 -19.91 31.09 -20.78Q31.09 -21.65 31.75 -22.26Q32.40 -22.88 33.32 -22.88Q34.24 -22.88 34.90 -22.26Q35.55 -21.65 35.55 -20.78Q35.55 -19.91 34.90 -19.29Q34.24 -18.68 33.32 -18.68Z M51.01 -12.03 47.50 -11.66Q47.28 -12.46 46.55 -13.09Q45.82 -13.71 44.48 -13.71Q43.28 -13.71 42.47 -13.19Q41.66 -12.66 41.66 -11.83Q41.66 -11.12 42.20 -10.66Q42.73 -10.20 43.97 -9.92L46.77 -9.33Q49.08 -8.84 50.22 -7.75Q51.36 -6.66 51.36 -4.91Q51.36 -3.36 50.47 -2.18Q49.57 -1.00 48.00 -0.34Q46.43 0.33 44.38 0.33Q41.37 0.33 39.55 -0.94Q37.72 -2.21 37.36 -4.46L41.11 -4.82Q41.37 -3.71 42.21 -3.15Q43.05 -2.59 44.37 -2.59Q45.74 -2.59 46.58 -3.15Q47.42 -3.72 47.42 -4.54Q47.42 -5.92 45.21 -6.41L42.42 -7.01Q40.07 -7.51 38.94 -8.67Q37.81 -9.82 37.81 -11.60Q37.81 -13.12 38.64 -14.24Q39.48 -15.35 40.97 -15.97Q42.47 -16.58 44.43 -16.58Q47.32 -16.58 48.97 -15.35Q50.62 -14.11 51.01 -12.03Z M61.58 -16.38V-13.38H52.19V-16.38ZM54.50 -20.27H58.35V-4.92Q58.35 -3.95 58.77 -3.49Q59.19 -3.04 60.11 -3.04Q60.37 -3.04 60.67 -3.08Q60.98 -3.12 61.24 -3.18L61.89 -0.16Q61.28 0.03 60.65 0.13Q60.01 0.22 59.39 0.22Q57.10 0.22 55.80 -0.98Q54.50 -2.19 54.50 -4.29Z M63.71 0.00V-16.38H67.56V0.00ZM65.64 -18.68Q64.72 -18.68 64.06 -19.29Q63.40 -19.91 63.40 -20.78Q63.40 -21.65 64.06 -22.26Q64.72 -22.88 65.64 -22.88Q66.56 -22.88 67.21 -22.26Q67.87 -21.65 67.87 -20.78Q67.87 -19.91 67.21 -19.29Q66.56 -18.68 65.64 -18.68Z M74.25 -9.59V0.00H70.40V-16.38H74.18V-13.58H74.36Q74.92 -14.96 76.12 -15.77Q77.32 -16.58 79.16 -16.58Q80.85 -16.58 82.11 -15.86Q83.37 -15.14 84.07 -13.76Q84.77 -12.38 84.77 -10.41V0.00H80.92V-9.81Q80.92 -11.45 80.07 -12.39Q79.22 -13.32 77.72 -13.32Q76.72 -13.32 75.93 -12.88Q75.15 -12.43 74.70 -11.60Q74.25 -10.78 74.25 -9.59Z M92.33 0.33Q90.77 0.33 89.52 -0.23Q88.27 -0.79 87.55 -1.89Q86.84 -2.99 86.84 -4.60Q86.84 -5.98 87.35 -6.89Q87.87 -7.79 88.75 -8.34Q89.64 -8.88 90.75 -9.16Q91.86 -9.45 93.05 -9.57Q94.50 -9.72 95.39 -9.84Q96.28 -9.96 96.69 -10.23Q97.10 -10.49 97.10 -11.04V-11.12Q97.10 -12.31 96.39 -12.97Q95.68 -13.63 94.33 -13.63Q92.92 -13.63 92.09 -13.01Q91.27 -12.40 90.97 -11.55L87.37 -12.06Q87.80 -13.56 88.79 -14.56Q89.77 -15.57 91.18 -16.08Q92.60 -16.58 94.31 -16.58Q95.48 -16.58 96.66 -16.31Q97.83 -16.03 98.81 -15.39Q99.78 -14.75 100.37 -13.67Q100.96 -12.58 100.96 -10.96V0.00H97.25V-2.26H97.13Q96.78 -1.58 96.14 -0.99Q95.50 -0.40 94.56 -0.03Q93.62 0.33 92.33 0.33ZM93.32 -2.51Q94.48 -2.51 95.33 -2.97Q96.19 -3.43 96.65 -4.20Q97.12 -4.97 97.12 -5.87V-7.80Q96.93 -7.65 96.50 -7.52Q96.08 -7.39 95.54 -7.29Q95.00 -7.20 94.48 -7.12Q93.96 -7.05 93.58 -7.00Q92.72 -6.88 92.03 -6.61Q91.35 -6.35 90.96 -5.87Q90.56 -5.40 90.56 -4.65Q90.56 -3.59 91.34 -3.05Q92.11 -2.51 93.32 -2.51Z M109.90 0.00V-2.46L121.09 -18.51H109.84V-21.83H126.00V-19.35L114.81 -3.32H126.06V0.00Z M133.31 0.33Q131.75 0.33 130.51 -0.23Q129.26 -0.79 128.54 -1.89Q127.82 -2.99 127.82 -4.60Q127.82 -5.98 128.34 -6.89Q128.85 -7.79 129.74 -8.34Q130.63 -8.88 131.73 -9.16Q132.84 -9.45 134.04 -9.57Q135.49 -9.72 136.38 -9.84Q137.26 -9.96 137.67 -10.23Q138.08 -10.49 138.08 -11.04V-11.12Q138.08 -12.31 137.37 -12.97Q136.67 -13.63 135.32 -13.63Q133.90 -13.63 133.08 -13.01Q132.25 -12.40 131.96 -11.55L128.36 -12.06Q128.79 -13.56 129.77 -14.56Q130.75 -15.57 132.17 -16.08Q133.58 -16.58 135.30 -16.58Q136.47 -16.58 137.64 -16.31Q138.81 -16.03 139.79 -15.39Q140.77 -14.75 141.36 -13.67Q141.95 -12.58 141.95 -10.96V0.00H138.23V-2.26H138.12Q137.77 -1.58 137.13 -0.99Q136.49 -0.40 135.55 -0.03Q134.60 0.33 133.31 0.33ZM134.30 -2.51Q135.47 -2.51 136.32 -2.97Q137.17 -3.43 137.64 -4.20Q138.11 -4.97 138.11 -5.87V-7.80Q137.92 -7.65 137.49 -7.52Q137.06 -7.39 136.52 -7.29Q135.99 -7.20 135.47 -7.12Q134.94 -7.05 134.57 -7.00Q133.70 -6.88 133.02 -6.61Q132.34 -6.35 131.94 -5.87Q131.55 -5.40 131.55 -4.65Q131.55 -3.59 132.32 -3.05Q133.10 -2.51 134.30 -2.51Z M148.32 -5.13 148.31 -9.80H148.93L154.80 -16.38H159.31L152.08 -8.30H151.27ZM144.80 0.00V-21.83H148.65V0.00ZM155.07 0.00 149.74 -7.44 152.34 -10.17 159.69 0.00Z M164.59 -9.59V0.00H160.74V-21.83H164.50V-13.58H164.71Q165.27 -14.97 166.48 -15.77Q167.68 -16.58 169.57 -16.58Q171.26 -16.58 172.53 -15.87Q173.80 -15.15 174.51 -13.77Q175.21 -12.40 175.21 -10.41V0.00H171.35V-9.81Q171.35 -11.48 170.50 -12.40Q169.65 -13.32 168.12 -13.32Q167.09 -13.32 166.29 -12.88Q165.50 -12.43 165.05 -11.60Q164.59 -10.78 164.59 -9.59Z M182.77 0.33Q181.21 0.33 179.96 -0.23Q178.71 -0.79 177.99 -1.89Q177.28 -2.99 177.28 -4.60Q177.28 -5.98 177.79 -6.89Q178.31 -7.79 179.19 -8.34Q180.08 -8.88 181.19 -9.16Q182.30 -9.45 183.49 -9.57Q184.94 -9.72 185.83 -9.84Q186.72 -9.96 187.13 -10.23Q187.54 -10.49 187.54 -11.04V-11.12Q187.54 -12.31 186.83 -12.97Q186.12 -13.63 184.77 -13.63Q183.36 -13.63 182.53 -13.01Q181.71 -12.40 181.41 -11.55L177.81 -12.06Q178.24 -13.56 179.23 -14.56Q180.21 -15.57 181.62 -16.08Q183.04 -16.58 184.75 -16.58Q185.92 -16.58 187.10 -16.31Q188.27 -16.03 189.24 -15.39Q190.22 -14.75 190.81 -13.67Q191.40 -12.58 191.40 -10.96V0.00H187.69V-2.26H187.57Q187.22 -1.58 186.58 -0.99Q185.94 -0.40 185.00 -0.03Q184.05 0.33 182.77 0.33ZM183.76 -2.51Q184.92 -2.51 185.77 -2.97Q186.63 -3.43 187.09 -4.20Q187.56 -4.97 187.56 -5.87V-7.80Q187.37 -7.65 186.94 -7.52Q186.52 -7.39 185.98 -7.29Q185.44 -7.20 184.92 -7.12Q184.40 -7.05 184.02 -7.00Q183.16 -6.88 182.47 -6.61Q181.79 -6.35 181.40 -5.87Q181.00 -5.40 181.00 -4.65Q181.00 -3.59 181.78 -3.05Q182.55 -2.51 183.76 -2.51Z M194.26 0.00V-16.38H197.98V-13.63H198.16Q198.61 -15.06 199.70 -15.83Q200.80 -16.60 202.20 -16.60Q202.52 -16.60 202.92 -16.57Q203.32 -16.54 203.59 -16.49V-12.96Q203.34 -13.04 202.81 -13.10Q202.28 -13.16 201.79 -13.16Q200.73 -13.16 199.90 -12.71Q199.06 -12.25 198.58 -11.46Q198.11 -10.66 198.11 -9.62V0.00Z M212.16 0.33Q209.72 0.33 207.97 -0.75Q206.21 -1.83 205.27 -3.73Q204.33 -5.63 204.33 -8.11Q204.33 -10.62 205.28 -12.53Q206.24 -14.43 207.99 -15.51Q209.75 -16.58 212.14 -16.58Q214.15 -16.58 215.68 -15.85Q217.22 -15.12 218.13 -13.80Q219.05 -12.47 219.18 -10.69H215.49Q215.35 -11.49 214.92 -12.12Q214.50 -12.75 213.82 -13.11Q213.13 -13.47 212.20 -13.47Q211.01 -13.47 210.12 -12.84Q209.23 -12.21 208.74 -11.02Q208.24 -9.83 208.24 -8.17Q208.24 -6.51 208.73 -5.30Q209.21 -4.08 210.11 -3.43Q211.00 -2.78 212.20 -2.78Q213.47 -2.78 214.36 -3.53Q215.25 -4.28 215.49 -5.60H219.18Q219.05 -3.86 218.16 -2.52Q217.27 -1.19 215.75 -0.43Q214.22 0.33 212.16 0.33Z M225.12 -9.59V0.00H221.27V-21.83H225.02V-13.58H225.23Q225.80 -14.97 227.01 -15.77Q228.21 -16.58 230.10 -16.58Q231.79 -16.58 233.06 -15.87Q234.33 -15.15 235.03 -13.77Q235.74 -12.40 235.74 -10.41V0.00H231.87V-9.81Q231.87 -11.48 231.02 -12.40Q230.17 -13.32 228.65 -13.32Q227.62 -13.32 226.82 -12.88Q226.03 -12.43 225.57 -11.60Q225.12 -10.78 225.12 -9.59Z M245.84 0.33Q243.37 0.33 241.58 -0.71Q239.79 -1.74 238.83 -3.63Q237.87 -5.53 237.87 -8.09Q237.87 -10.62 238.83 -12.53Q239.78 -14.44 241.51 -15.51Q243.24 -16.58 245.58 -16.58Q247.09 -16.58 248.45 -16.10Q249.81 -15.61 250.85 -14.60Q251.90 -13.59 252.50 -12.03Q253.10 -10.47 253.10 -8.31V-7.12H239.67V-9.71H251.18L249.38 -8.95Q249.38 -10.34 248.96 -11.37Q248.53 -12.41 247.69 -12.99Q246.85 -13.58 245.61 -13.58Q244.36 -13.58 243.49 -12.99Q242.61 -12.40 242.15 -11.42Q241.69 -10.43 241.69 -9.22V-7.42Q241.69 -5.92 242.22 -4.85Q242.74 -3.79 243.69 -3.24Q244.63 -2.68 245.88 -2.68Q246.71 -2.68 247.39 -2.92Q248.07 -3.16 248.56 -3.63Q249.06 -4.11 249.31 -4.80L252.91 -4.38Q252.57 -2.96 251.63 -1.90Q250.68 -0.84 249.21 -0.26Q247.74 0.33 245.84 0.33Z M259.03 -9.59V0.00H255.18V-16.38H258.95V-13.58H259.14Q259.70 -14.96 260.90 -15.77Q262.10 -16.58 263.94 -16.58Q265.63 -16.58 266.89 -15.86Q268.15 -15.14 268.85 -13.76Q269.55 -12.38 269.55 -10.41V0.00H265.70V-9.81Q265.70 -11.45 264.84 -12.39Q263.99 -13.32 262.50 -13.32Q261.49 -13.32 260.71 -12.88Q259.92 -12.43 259.48 -11.60Q259.03 -10.78 259.03 -9.59Z M275.91 -5.13 275.89 -9.80H276.52L282.39 -16.38H286.90L279.67 -8.30H278.86ZM272.39 0.00V-21.83H276.24V0.00ZM282.66 0.00 277.32 -7.44 279.93 -10.17 287.27 0.00Z M295.45 0.33Q293.06 0.33 291.30 -0.73Q289.54 -1.79 288.58 -3.69Q287.62 -5.59 287.62 -8.11Q287.62 -10.66 288.58 -12.56Q289.54 -14.47 291.30 -15.52Q293.06 -16.58 295.45 -16.58Q297.86 -16.58 299.62 -15.52Q301.38 -14.47 302.34 -12.56Q303.30 -10.66 303.30 -8.11Q303.30 -5.59 302.34 -3.69Q301.38 -1.79 299.62 -0.73Q297.86 0.33 295.45 0.33ZM295.46 -2.78Q296.79 -2.78 297.66 -3.50Q298.52 -4.21 298.96 -5.42Q299.39 -6.64 299.39 -8.12Q299.39 -9.63 298.96 -10.84Q298.52 -12.05 297.66 -12.76Q296.79 -13.47 295.46 -13.47Q294.15 -13.47 293.28 -12.76Q292.40 -12.05 291.97 -10.84Q291.53 -9.63 291.53 -8.12Q291.53 -6.64 291.97 -5.42Q292.40 -4.21 293.28 -3.50Q294.15 -2.78 295.46 -2.78Z" fill="#16110F"/><path d="M345.90 -10.59V-7.83H315.90V-10.59Z M354.34 0.00V-21.83H362.13Q364.67 -21.83 366.34 -20.90Q368.01 -19.97 368.85 -18.36Q369.68 -16.76 369.68 -14.75Q369.68 -12.74 368.85 -11.14Q368.01 -9.53 366.33 -8.60Q364.65 -7.67 362.11 -7.67H356.77V-10.46H361.80Q363.42 -10.46 364.42 -11.02Q365.43 -11.58 365.89 -12.55Q366.36 -13.52 366.36 -14.75Q366.36 -15.99 365.89 -16.95Q365.43 -17.91 364.42 -18.46Q363.41 -19.00 361.78 -19.00H357.64V0.00Z M379.06 0.34Q376.65 0.34 374.89 -0.70Q373.13 -1.75 372.19 -3.64Q371.25 -5.54 371.25 -8.07Q371.25 -10.60 372.18 -12.51Q373.11 -14.43 374.80 -15.50Q376.49 -16.58 378.77 -16.58Q380.16 -16.58 381.47 -16.13Q382.78 -15.67 383.82 -14.69Q384.86 -13.71 385.46 -12.15Q386.07 -10.58 386.07 -8.36V-7.22H373.05V-9.60H384.43L382.95 -8.81Q382.95 -10.32 382.48 -11.48Q382.02 -12.64 381.09 -13.29Q380.16 -13.95 378.78 -13.95Q377.40 -13.95 376.43 -13.29Q375.45 -12.62 374.94 -11.54Q374.42 -10.45 374.42 -9.16V-7.55Q374.42 -5.87 375.01 -4.69Q375.59 -3.52 376.64 -2.90Q377.69 -2.29 379.08 -2.29Q379.99 -2.29 380.73 -2.55Q381.47 -2.82 382.01 -3.34Q382.55 -3.87 382.83 -4.64L385.85 -4.08Q385.49 -2.75 384.56 -1.76Q383.64 -0.76 382.24 -0.21Q380.84 0.34 379.06 0.34Z M388.29 0.00V-16.38H391.36V-13.76H391.53Q391.98 -15.08 393.12 -15.84Q394.26 -16.61 395.69 -16.61Q395.99 -16.61 396.39 -16.59Q396.80 -16.57 397.05 -16.54V-13.49Q396.85 -13.55 396.36 -13.61Q395.87 -13.67 395.37 -13.67Q394.25 -13.67 393.36 -13.19Q392.47 -12.72 391.97 -11.89Q391.46 -11.06 391.46 -9.98V0.00Z M406.35 -16.38V-13.81H397.11V-16.38ZM399.64 0.00V-18.28Q399.64 -19.80 400.31 -20.82Q400.99 -21.84 402.10 -22.34Q403.21 -22.85 404.49 -22.85Q405.47 -22.85 406.15 -22.69Q406.84 -22.54 407.16 -22.41L406.41 -19.83Q406.19 -19.90 405.84 -19.99Q405.49 -20.08 404.98 -20.08Q403.82 -20.08 403.31 -19.50Q402.80 -18.92 402.80 -17.83V0.00Z M415.25 0.34Q412.94 0.34 411.23 -0.72Q409.51 -1.77 408.57 -3.68Q407.62 -5.58 407.62 -8.10Q407.62 -10.65 408.57 -12.56Q409.51 -14.47 411.23 -15.53Q412.94 -16.58 415.25 -16.58Q417.56 -16.58 419.28 -15.53Q420.99 -14.47 421.94 -12.56Q422.89 -10.65 422.89 -8.10Q422.89 -5.58 421.94 -3.68Q420.99 -1.77 419.28 -0.72Q417.56 0.34 415.25 0.34ZM415.25 -2.34Q416.77 -2.34 417.74 -3.13Q418.72 -3.92 419.20 -5.23Q419.68 -6.55 419.68 -8.10Q419.68 -9.69 419.20 -11.00Q418.72 -12.32 417.74 -13.11Q416.77 -13.90 415.25 -13.90Q413.76 -13.90 412.78 -13.11Q411.80 -12.32 411.32 -11.00Q410.84 -9.69 410.84 -8.10Q410.84 -6.55 411.32 -5.23Q411.80 -3.92 412.78 -3.13Q413.76 -2.34 415.25 -2.34Z M425.18 0.00V-16.38H428.24V-13.76H428.42Q428.87 -15.08 430.01 -15.84Q431.14 -16.61 432.58 -16.61Q432.88 -16.61 433.28 -16.59Q433.68 -16.57 433.93 -16.54V-13.49Q433.74 -13.55 433.25 -13.61Q432.76 -13.67 432.25 -13.67Q431.13 -13.67 430.24 -13.19Q429.36 -12.72 428.85 -11.89Q428.35 -11.06 428.35 -9.98V0.00Z M435.44 0.00V-16.38H438.48V-13.69H438.70Q439.22 -15.05 440.38 -15.82Q441.54 -16.58 443.16 -16.58Q444.79 -16.58 445.90 -15.81Q447.01 -15.04 447.54 -13.69H447.72Q448.32 -15.01 449.59 -15.80Q450.86 -16.58 452.62 -16.58Q454.85 -16.58 456.27 -15.18Q457.69 -13.79 457.69 -10.97V0.00H454.49V-10.68Q454.49 -12.34 453.59 -13.09Q452.68 -13.83 451.42 -13.83Q449.87 -13.83 449.01 -12.87Q448.15 -11.91 448.15 -10.44V0.00H444.96V-10.89Q444.96 -12.21 444.14 -13.02Q443.31 -13.83 441.98 -13.83Q441.08 -13.83 440.31 -13.35Q439.54 -12.87 439.08 -12.03Q438.61 -11.19 438.61 -10.09V0.00Z M465.49 0.36Q463.93 0.36 462.67 -0.22Q461.41 -0.80 460.68 -1.91Q459.94 -3.03 459.94 -4.63Q459.94 -6.02 460.48 -6.91Q461.02 -7.80 461.92 -8.32Q462.83 -8.85 463.95 -9.12Q465.06 -9.38 466.23 -9.52Q467.70 -9.69 468.61 -9.80Q469.52 -9.91 469.94 -10.17Q470.36 -10.42 470.36 -11.00V-11.08Q470.36 -12.46 469.58 -13.23Q468.80 -13.99 467.25 -13.99Q465.65 -13.99 464.72 -13.29Q463.80 -12.59 463.45 -11.72L460.45 -12.40Q460.98 -13.90 462.01 -14.82Q463.04 -15.74 464.38 -16.16Q465.72 -16.58 467.20 -16.58Q468.18 -16.58 469.28 -16.35Q470.38 -16.12 471.35 -15.52Q472.33 -14.91 472.94 -13.78Q473.55 -12.65 473.55 -10.87V0.00H470.44V-2.24H470.32Q470.02 -1.64 469.40 -1.04Q468.78 -0.44 467.81 -0.04Q466.85 0.36 465.49 0.36ZM466.17 -2.19Q467.50 -2.19 468.44 -2.72Q469.38 -3.24 469.88 -4.09Q470.37 -4.94 470.37 -5.89V-8.02Q470.20 -7.85 469.72 -7.71Q469.24 -7.56 468.62 -7.46Q468.00 -7.35 467.41 -7.27Q466.82 -7.20 466.44 -7.15Q465.51 -7.02 464.75 -6.75Q463.98 -6.47 463.52 -5.95Q463.07 -5.44 463.07 -4.58Q463.07 -3.40 463.94 -2.80Q464.81 -2.19 466.17 -2.19Z M479.76 -9.71V0.00H476.59V-16.38H479.68V-13.69H479.89Q480.46 -15.01 481.64 -15.80Q482.83 -16.58 484.68 -16.58Q486.35 -16.58 487.60 -15.88Q488.86 -15.19 489.55 -13.81Q490.25 -12.44 490.25 -10.41V0.00H487.08V-10.02Q487.08 -11.80 486.15 -12.81Q485.22 -13.82 483.60 -13.82Q482.50 -13.82 481.63 -13.34Q480.76 -12.85 480.26 -11.94Q479.76 -11.03 479.76 -9.71Z M500.16 0.34Q497.80 0.34 496.09 -0.75Q494.38 -1.83 493.46 -3.73Q492.54 -5.64 492.54 -8.10Q492.54 -10.61 493.48 -12.51Q494.42 -14.42 496.13 -15.50Q497.84 -16.58 500.14 -16.58Q502.01 -16.58 503.47 -15.90Q504.93 -15.21 505.83 -13.97Q506.73 -12.73 506.90 -11.07H503.79Q503.62 -11.84 503.16 -12.49Q502.70 -13.13 501.95 -13.52Q501.20 -13.90 500.18 -13.90Q498.85 -13.90 497.86 -13.20Q496.87 -12.50 496.31 -11.22Q495.76 -9.93 495.76 -8.17Q495.76 -6.40 496.30 -5.08Q496.85 -3.77 497.84 -3.06Q498.84 -2.34 500.18 -2.34Q501.56 -2.34 502.53 -3.10Q503.50 -3.86 503.79 -5.19H506.90Q506.73 -3.59 505.86 -2.35Q505.00 -1.10 503.55 -0.38Q502.10 0.34 500.16 0.34Z M516.18 0.34Q513.77 0.34 512.01 -0.70Q510.26 -1.75 509.32 -3.64Q508.38 -5.54 508.38 -8.07Q508.38 -10.60 509.31 -12.51Q510.24 -14.43 511.93 -15.50Q513.62 -16.58 515.89 -16.58Q517.29 -16.58 518.59 -16.13Q519.90 -15.67 520.94 -14.69Q521.98 -13.71 522.59 -12.15Q523.19 -10.58 523.19 -8.36V-7.22H510.17V-9.60H521.55L520.08 -8.81Q520.08 -10.32 519.61 -11.48Q519.14 -12.64 518.21 -13.29Q517.28 -13.95 515.91 -13.95Q514.53 -13.95 513.55 -13.29Q512.58 -12.62 512.06 -11.54Q511.55 -10.45 511.55 -9.16V-7.55Q511.55 -5.87 512.13 -4.69Q512.72 -3.52 513.77 -2.90Q514.82 -2.29 516.20 -2.29Q517.11 -2.29 517.85 -2.55Q518.60 -2.82 519.13 -3.34Q519.67 -3.87 519.95 -4.64L522.97 -4.08Q522.61 -2.75 521.69 -1.76Q520.76 -0.76 519.36 -0.21Q517.96 0.34 516.18 0.34Z M532.34 -21.83H536.34L543.29 -4.87H543.54L550.49 -21.83H554.58V0.00H551.34V-15.79H551.15L544.68 -0.04H542.08L535.69 -15.80H535.49V0.00H532.34Z M562.60 0.36Q561.05 0.36 559.79 -0.22Q558.53 -0.80 557.79 -1.91Q557.06 -3.03 557.06 -4.63Q557.06 -6.02 557.60 -6.91Q558.13 -7.80 559.04 -8.32Q559.95 -8.85 561.07 -9.12Q562.18 -9.38 563.35 -9.52Q564.82 -9.69 565.73 -9.80Q566.64 -9.91 567.06 -10.17Q567.48 -10.42 567.48 -11.00V-11.08Q567.48 -12.46 566.70 -13.23Q565.92 -13.99 564.37 -13.99Q562.77 -13.99 561.84 -13.29Q560.92 -12.59 560.57 -11.72L557.57 -12.40Q558.10 -13.90 559.13 -14.82Q560.16 -15.74 561.50 -16.16Q562.84 -16.58 564.32 -16.58Q565.30 -16.58 566.40 -16.35Q567.49 -16.12 568.47 -15.52Q569.45 -14.91 570.06 -13.78Q570.67 -12.65 570.67 -10.87V0.00H567.56V-2.24H567.44Q567.14 -1.64 566.52 -1.04Q565.90 -0.44 564.93 -0.04Q563.97 0.36 562.60 0.36ZM563.29 -2.19Q564.62 -2.19 565.56 -2.72Q566.50 -3.24 567.00 -4.09Q567.49 -4.94 567.49 -5.89V-8.02Q567.32 -7.85 566.84 -7.71Q566.35 -7.56 565.74 -7.46Q565.12 -7.35 564.53 -7.27Q563.94 -7.20 563.55 -7.15Q562.63 -7.02 561.87 -6.75Q561.10 -6.47 560.64 -5.95Q560.19 -5.44 560.19 -4.58Q560.19 -3.40 561.06 -2.80Q561.93 -2.19 563.29 -2.19Z M573.71 0.00V-16.38H576.78V-13.76H576.95Q577.40 -15.08 578.54 -15.84Q579.68 -16.61 581.11 -16.61Q581.41 -16.61 581.81 -16.59Q582.22 -16.57 582.47 -16.54V-13.49Q582.27 -13.55 581.78 -13.61Q581.29 -13.67 580.79 -13.67Q579.67 -13.67 578.78 -13.19Q577.89 -12.72 577.39 -11.89Q576.88 -11.06 576.88 -9.98V0.00Z M586.91 -5.55 586.87 -9.44H587.45L593.96 -16.38H597.77L590.34 -8.47H589.82ZM583.98 0.00V-21.83H587.15V0.00ZM594.30 0.00 588.44 -7.76 590.64 -10.01 598.22 0.00Z M606.46 0.34Q604.05 0.34 602.29 -0.70Q600.54 -1.75 599.60 -3.64Q598.65 -5.54 598.65 -8.07Q598.65 -10.60 599.58 -12.51Q600.52 -14.43 602.21 -15.50Q603.90 -16.58 606.17 -16.58Q607.56 -16.58 608.87 -16.13Q610.18 -15.67 611.22 -14.69Q612.26 -13.71 612.87 -12.15Q613.47 -10.58 613.47 -8.36V-7.22H600.45V-9.60H611.83L610.36 -8.81Q610.36 -10.32 609.89 -11.48Q609.42 -12.64 608.49 -13.29Q607.56 -13.95 606.18 -13.95Q604.81 -13.95 603.83 -13.29Q602.86 -12.62 602.34 -11.54Q601.82 -10.45 601.82 -9.16V-7.55Q601.82 -5.87 602.41 -4.69Q602.99 -3.52 604.05 -2.90Q605.10 -2.29 606.48 -2.29Q607.39 -2.29 608.13 -2.55Q608.87 -2.82 609.41 -3.34Q609.95 -3.87 610.23 -4.64L613.25 -4.08Q612.89 -2.75 611.97 -1.76Q611.04 -0.76 609.64 -0.21Q608.24 0.34 606.46 0.34Z M623.32 -16.38V-13.81H614.39V-16.38ZM616.77 -20.27H619.94V-4.80Q619.94 -3.68 620.42 -3.16Q620.89 -2.63 621.92 -2.63Q622.17 -2.63 622.46 -2.67Q622.75 -2.70 623.04 -2.76L623.63 -0.12Q623.15 0.04 622.58 0.13Q622.01 0.21 621.44 0.21Q619.31 0.21 618.04 -0.98Q616.77 -2.17 616.77 -4.15Z M625.58 0.00V-16.38H628.75V0.00ZM627.18 -18.89Q626.35 -18.89 625.76 -19.45Q625.17 -20.00 625.17 -20.79Q625.17 -21.58 625.76 -22.13Q626.35 -22.69 627.18 -22.69Q628.00 -22.69 628.59 -22.13Q629.19 -21.58 629.19 -20.79Q629.19 -20.00 628.59 -19.45Q628.00 -18.89 627.18 -18.89Z M634.96 -9.71V0.00H631.79V-16.38H634.88V-13.69H635.09Q635.66 -15.01 636.84 -15.80Q638.03 -16.58 639.88 -16.58Q641.55 -16.58 642.80 -15.88Q644.06 -15.19 644.75 -13.81Q645.45 -12.44 645.45 -10.41V0.00H642.28V-10.02Q642.28 -11.80 641.35 -12.81Q640.42 -13.82 638.80 -13.82Q637.70 -13.82 636.83 -13.34Q635.96 -12.85 635.46 -11.94Q634.96 -11.03 634.96 -9.71Z M655.33 6.47Q652.40 6.47 650.71 5.37Q649.03 4.27 648.39 2.77L651.11 1.64Q651.40 2.11 651.89 2.64Q652.38 3.16 653.21 3.53Q654.05 3.90 655.36 3.90Q657.18 3.90 658.36 3.03Q659.55 2.16 659.55 0.23V-2.98H659.33Q659.05 -2.46 658.52 -1.82Q657.98 -1.18 657.04 -0.72Q656.10 -0.25 654.59 -0.25Q652.65 -0.25 651.11 -1.16Q649.56 -2.08 648.65 -3.86Q647.74 -5.64 647.74 -8.24Q647.74 -10.85 648.64 -12.72Q649.53 -14.58 651.09 -15.58Q652.65 -16.58 654.63 -16.58Q656.15 -16.58 657.09 -16.08Q658.03 -15.57 658.56 -14.90Q659.09 -14.22 659.38 -13.72H659.61V-16.38H662.70V0.37Q662.70 2.47 661.73 3.82Q660.76 5.17 659.09 5.82Q657.42 6.47 655.33 6.47ZM655.30 -2.89Q657.36 -2.89 658.47 -4.33Q659.57 -5.76 659.57 -8.29Q659.57 -9.95 659.09 -11.20Q658.60 -12.46 657.65 -13.17Q656.69 -13.87 655.30 -13.87Q653.86 -13.87 652.90 -13.13Q651.93 -12.39 651.45 -11.12Q650.97 -9.86 650.97 -8.29Q650.97 -6.69 651.46 -5.47Q651.95 -4.25 652.92 -3.57Q653.89 -2.89 655.30 -2.89Z" fill="#16110F" opacity="0.62"/></g></svg>